<?xml version="1.0" standalone="no"?><svg xmlns="http://www.w3.org/2000/svg" viewBox="0 0 1440 320"><path fill="#DC8686" fill-opacity="1" d="M0,160L40,176C80,192,160,224,240,224C320,224,400,192,480,170.7C560,149,640,139,720,138.7C800,139,880,149,960,165.3C1040,181,1120,203,1200,186.7C1280,171,1360,117,1400,90.7L1440,64L1440,320L1400,320C1360,320,1280,320,1200,320C1120,320,1040,320,960,320C880,320,800,320,720,320C640,320,560,320,480,320C400,320,320,320,240,320C160,320,80,320,40,320L0,320Z"></path></svg>